# 3ds Max Wavefront OBJ Exporter v0.97b - (c)2007 guruware
# File Created: 23.09.2013 01:23:12

mtllib Bomb.mtl

#
# object Mesh0
#

v  -1.3775 0.0000 -3.3259
v  -1.3775 -2.3518 -2.3518
v  -2.5455 -1.8000 -1.8000
v  -2.5455 0.0000 -2.5455
v  -3.3259 0.0000 -1.3775
v  -2.5455 1.8000 -1.8000
v  -3.3259 0.9741 -0.9741
v  -2.5455 2.5455 0.0000
v  -3.3259 1.3775 0.0000
v  -2.5455 1.8000 1.8000
v  -1.3775 3.3259 0.0000
v  -1.3775 2.3518 2.3518
v  -1.3704 -0.0133 3.3223
v  -2.5455 0.0000 2.5455
v  -3.3259 0.9741 0.9741
v  -3.3259 0.0000 1.3775
v  -3.3259 -0.9741 0.9741
v  -2.5455 -1.8000 1.8000
v  -3.3259 -1.3775 0.0000
v  -2.5455 -2.5455 0.0000
v  -3.3259 -0.9741 -0.9741
v  -1.3775 -3.3259 0.0000
v  3.3259 0.0000 -1.3775
v  3.3259 -0.9741 -0.9741
v  2.5455 -1.8000 -1.8000
v  2.5455 -2.5455 -0.0000
v  1.3775 -3.3259 -0.0000
v  1.3775 -2.3518 -2.3518
v  1.3775 0.0000 -3.3259
v  2.5455 0.0000 -2.5455
v  2.5455 1.8000 -1.8000
v  3.3259 0.9741 -0.9741
v  2.5455 2.5455 -0.0000
v  3.3259 1.3775 -0.0000
v  2.5455 1.8000 1.8000
v  1.3775 3.3259 -0.0000
v  1.3775 2.3518 2.3518
v  1.3775 0.0000 3.3259
v  2.5455 0.0000 2.5455
v  3.3259 0.9741 0.9741
v  3.3259 -1.3775 -0.0000
v  2.5455 -1.8000 1.8000
v  3.3259 -0.9741 0.9741
v  3.3259 0.0000 1.3775
v  2.3723 0.0000 -2.3725
v  1.2838 0.0000 -3.0998
v  1.2838 2.1917 -2.1918
v  2.3723 1.6774 -1.6777
v  2.3723 2.3723 -0.0001
v  1.2838 3.0996 -0.0001
v  -0.0000 3.3549 -0.0001
v  1.2838 2.1917 2.1914
v  0.0000 2.3723 2.3720
v  -1.2838 3.0996 -0.0001
v  -1.2838 2.1917 2.1914
v  -0.0067 -0.0125 3.3486
v  1.2838 0.0000 3.0993
v  1.2838 -2.1917 2.1914
v  2.3723 0.0000 2.3720
v  2.3723 -1.6774 1.6772
v  2.3723 -2.3723 -0.0001
v  1.2838 -3.0996 -0.0001
v  -0.0000 -3.3549 -0.0001
v  1.2838 -2.1917 -2.1918
v  -0.0000 -2.3723 -2.3725
v  -1.2838 -2.1917 -2.1918
v  -1.2838 -3.0996 -0.0001
v  -1.2771 -2.1812 2.1976
v  -2.3723 -2.3723 -0.0001
v  -2.3723 -1.6774 1.6772
v  -2.3723 0.0000 2.3720
v  -1.2771 -0.0125 3.0959
v  -0.0067 -2.3597 2.3763
v  -0.0000 2.3723 -2.3725
v  -1.2838 2.1917 -2.1918
v  -2.3723 2.3723 -0.0001
v  -2.3723 1.6774 -1.6777
v  -2.3723 0.0000 -2.3725
v  -1.2838 0.0000 -3.0998
v  -0.0000 0.0000 -3.3552
v  3.6000 0.0000 -0.0000
v  -3.6000 0.0000 0.0000
# 82 vertices

vn -0.5253 -0.3256 -0.7861
vn -0.5556 -0.5879 -0.5879
vn -0.6838 -0.5159 -0.5159
vn -0.7245 -0.1423 -0.6744
vn -0.8314 -0.0000 -0.5556
vn -0.8315 0.3929 -0.3929
vn -0.7245 0.6744 0.1423
vn -0.8314 0.5556 0.0000
vn -0.6834 0.5155 0.5170
vn -0.5253 0.7861 0.3256
vn -0.5556 0.5863 0.5896
vn -0.5209 0.3250 0.7893
vn -0.7219 0.1435 0.6769
vn -0.8315 0.3929 0.3929
vn -0.8314 0.0000 0.5556
vn -0.8315 -0.3929 0.3929
vn -0.8314 -0.5556 0.0000
vn -0.7245 -0.6744 -0.1423
vn -0.8315 -0.3929 -0.3929
vn -0.5253 -0.7861 -0.3256
vn 0.8314 -0.0000 -0.5556
vn 0.8315 -0.3929 -0.3929
vn 0.6838 -0.5159 -0.5159
vn 0.7245 -0.6744 -0.1423
vn 0.5253 -0.7861 -0.3256
vn 0.5556 -0.5879 -0.5879
vn 0.5253 -0.3256 -0.7861
vn 0.7245 -0.1423 -0.6744
vn 0.8315 0.3929 -0.3929
vn 0.7245 0.6744 0.1423
vn 0.8314 0.5556 0.0000
vn 0.6838 0.5159 0.5159
vn 0.5253 0.7861 0.3256
vn 0.5556 0.5879 0.5879
vn 0.5253 0.3256 0.7861
vn 0.7245 0.1423 0.6744
vn 0.8315 0.3929 0.3929
vn 0.8314 -0.5556 0.0000
vn 0.8315 -0.3929 0.3929
vn 0.8314 0.0000 0.5556
vn 0.5253 0.3257 -0.7862
vn 0.3051 0.1031 -0.9467
vn 0.3668 0.6578 -0.6578
vn 0.5555 0.5879 -0.5880
vn 0.5253 0.7862 -0.3257
vn 0.3051 0.9467 -0.1031
vn 0.0000 1.0000 0.0000
vn 0.1938 0.6925 0.6949
vn 0.0002 0.7057 0.7085
vn -0.3051 0.9467 -0.1031
vn -0.1952 0.6924 0.6946
vn -0.0021 -0.0023 1.0000
vn 0.3015 -0.1015 0.9480
vn 0.3648 -0.6587 0.6581
vn 0.5253 -0.3257 0.7862
vn 0.5555 -0.5879 0.5880
vn 0.5253 -0.7861 0.3257
vn 0.3051 -0.9467 0.1031
vn -0.0005 -1.0000 0.0012
vn 0.1951 -0.6935 -0.6935
vn 0.0000 -0.7071 -0.7071
vn -0.1951 -0.6935 -0.6935
vn -0.3050 -0.9465 0.1056
vn -0.3652 -0.6568 0.6597
vn -0.5227 -0.7865 0.3289
vn -0.5515 -0.5914 0.5883
vn -0.5238 -0.3260 0.7870
vn -0.3051 -0.1048 0.9466
vn -0.0027 -0.7051 0.7091
vn 0.0000 0.7071 -0.7071
vn -0.3668 0.6578 -0.6578
vn -0.5253 0.7862 -0.3257
vn -0.5555 0.5879 -0.5880
vn -0.5253 0.3257 -0.7862
vn -0.3051 0.1031 -0.9467
vn -0.0000 -0.0000 -1.0000
vn -0.6559 -0.2712 0.7044
vn -0.4119 -0.4113 0.8131
vn -0.7332 -0.3033 0.6086
vn -0.4333 -0.4326 0.7907
vn -0.6558 0.2721 -0.7041
vn -0.4111 0.4118 -0.8133
vn -0.7326 0.3039 -0.6090
vn -0.4327 0.4334 -0.7905
vn 0.4119 -0.4113 0.8131
vn 0.6559 -0.2712 0.7044
vn 0.4333 -0.4326 0.7907
vn 0.7332 -0.3033 0.6086
vn 0.6534 -0.7085 0.2666
vn 0.4096 -0.8155 0.4089
vn 0.7328 -0.6108 0.2997
vn 0.4303 -0.7939 0.4296
vn -0.7078 -0.4994 0.4996
vn -0.7078 -0.4995 0.4995
vn -0.4118 -0.8133 0.4111
vn -0.4336 -0.7904 0.4328
vn 0.7078 -0.4994 0.4996
vn 0.7078 -0.4995 0.4995
vn 0.9241 0.2709 0.2697
vn 0.9241 0.2707 0.2699
vn 0.6558 0.2721 -0.7041
vn 0.7326 0.3039 -0.6090
vn 0.6558 0.7043 -0.2718
vn 0.7329 0.6087 -0.3038
vn 0.9239 -0.2706 -0.2706
vn -0.4114 0.8131 -0.4118
vn -0.6558 0.7043 -0.2718
vn -0.4327 0.7907 -0.4331
vn -0.7329 0.6087 -0.3038
vn -0.6560 -0.7042 0.2714
vn -0.7329 -0.6090 0.3032
vn 0.4114 0.8131 -0.4118
vn 0.4327 0.7907 -0.4331
vn 0.4111 0.4118 -0.8133
vn 0.4327 0.4334 -0.7905
vn -0.7072 0.5000 -0.4999
vn -0.7072 0.4998 -0.5001
vn -0.9239 -0.2706 -0.2706
vn -0.9241 0.2703 0.2703
vn -0.9241 0.2704 0.2702
vn 0.7072 0.5000 -0.4999
vn 0.7072 0.4998 -0.5001
vn 0.9808 0.0000 -0.1951
vn 0.9808 0.1380 -0.1380
vn 1.0000 -0.0000 -0.0000
vn 0.9808 0.1951 -0.0000
vn 0.9808 0.1380 0.1380
vn 0.9808 -0.0000 0.1951
vn 0.9808 -0.1380 0.1380
vn 0.9808 -0.1951 -0.0000
vn 0.9808 -0.1380 -0.1380
vn -0.9808 0.1380 -0.1380
vn -0.9808 0.0000 -0.1951
vn -1.0000 -0.0000 0.0000
vn -0.9808 -0.1380 -0.1380
vn -0.9808 -0.1951 0.0000
vn -0.9808 -0.1380 0.1380
vn -0.9808 0.0000 0.1951
vn -0.9808 0.1380 0.1380
vn -0.9808 0.1951 0.0000
# 140 vertex normals

vt 0.6519 0.0439 0.0000
vt 0.7541 0.3142 0.0000
vt 0.6704 0.3140 0.0000
vt 0.5923 0.1072 0.0000
vt 0.5032 0.2019 0.0000
vt 0.4001 0.0212 0.0000
vt 0.3992 0.1553 0.0000
vt 0.2068 0.1064 0.0000
vt 0.2944 0.2014 0.0000
vt 0.1252 0.3127 0.0000
vt 0.1482 0.0430 0.0000
vt 0.0417 0.3127 0.0000
vt 0.1453 0.5837 0.0000
vt 0.2036 0.5195 0.0000
vt 0.2505 0.3130 0.0000
vt 0.2927 0.4250 0.0000
vt 0.3967 0.4714 0.0000
vt 0.3958 0.6057 0.0000
vt 0.5015 0.4255 0.0000
vt 0.5891 0.5205 0.0000
vt 0.5454 0.3137 0.0000
vt 0.6477 0.5840 0.0000
vt 0.2935 0.4253 0.0000
vt 0.2507 0.3135 0.0000
vt 0.1255 0.3137 0.0000
vt 0.2063 0.1067 0.0000
vt 0.1475 0.0432 0.0000
vt 0.0417 0.3137 0.0000
vt 0.1450 0.5840 0.0000
vt 0.2043 0.5205 0.0000
vt 0.3970 0.6060 0.0000
vt 0.3977 0.4717 0.0000
vt 0.5903 0.5198 0.0000
vt 0.5022 0.4250 0.0000
vt 0.6714 0.3130 0.0000
vt 0.6492 0.5833 0.0000
vt 0.7549 0.3127 0.0000
vt 0.6519 0.0425 0.0000
vt 0.5923 0.1062 0.0000
vt 0.5461 0.3130 0.0000
vt 0.3997 0.0208 0.0000
vt 0.3992 0.1548 0.0000
vt 0.5034 0.2012 0.0000
vt 0.2449 0.9724 0.0000
vt 0.1914 0.8923 0.0000
vt 0.4187 0.8923 0.0000
vt 0.4187 0.9724 0.0000
vt 0.5928 0.9724 0.0000
vt 0.6462 0.8923 0.0000
vt 0.6648 0.7976 0.0000
vt 0.8096 0.8923 0.0000
vt 0.8096 0.7976 0.0000
vt 0.6462 0.7031 0.0000
vt 0.8096 0.7031 0.0000
vt 0.6633 0.7976 0.0000
vt 0.6467 0.8926 0.0000
vt 0.4192 0.8936 0.0000
vt 0.5940 0.9729 0.0000
vt 0.4199 0.9736 0.0000
vt 0.2458 0.9744 0.0000
vt 0.1919 0.8943 0.0000
vt 0.1726 0.7998 0.0000
vt 0.0442 0.8945 0.0000
vt 0.0442 0.8000 0.0000
vt 0.0442 0.7056 0.0000
vt 0.1907 0.7053 0.0000
vt 0.4192 0.7048 0.0000
vt 0.2434 0.6248 0.0000
vt 0.4172 0.6243 0.0000
vt 0.5913 0.6235 0.0000
vt 0.6440 0.7041 0.0000
vt 0.4197 0.7986 0.0000
vt 0.0442 0.8923 0.0000
vt 0.0442 0.7976 0.0000
vt 0.4187 0.7976 0.0000
vt 0.4187 0.7031 0.0000
vt 0.5928 0.6230 0.0000
vt 0.4187 0.6230 0.0000
vt 0.2449 0.6230 0.0000
vt 0.1914 0.7031 0.0000
vt 0.1726 0.7976 0.0000
vt 0.0442 0.7031 0.0000
vt 0.8147 0.2100 0.0000
vt 0.8145 0.1897 0.0000
vt 0.8147 0.2041 0.0000
vt 0.8145 0.1851 0.0000
vt 0.8147 0.0374 0.0000
vt 0.8145 0.0574 0.0000
vt 0.8147 0.0432 0.0000
vt 0.8145 0.0620 0.0000
vt 0.8157 0.1899 0.0000
vt 0.8152 0.2100 0.0000
vt 0.8154 0.1853 0.0000
vt 0.8152 0.2041 0.0000
vt 0.7583 0.1240 0.0000
vt 0.7720 0.1238 0.0000
vt 0.7622 0.1240 0.0000
vt 0.7749 0.1238 0.0000
vt 0.7834 0.1702 0.0000
vt 0.7856 0.1670 0.0000
vt 0.7708 0.1235 0.0000
vt 0.7737 0.1235 0.0000
vt 0.7847 0.1704 0.0000
vt 0.7869 0.1672 0.0000
vt 0.7751 0.0627 0.0000
vt 0.7778 0.0669 0.0000
vt 0.8154 0.0374 0.0000
vt 0.8154 0.0432 0.0000
vt 0.8723 0.1238 0.0000
vt 0.8684 0.1238 0.0000
vt 0.8557 0.1848 0.0000
vt 0.8530 0.1807 0.0000
vt 0.8582 0.1235 0.0000
vt 0.8718 0.1238 0.0000
vt 0.8552 0.1235 0.0000
vt 0.8679 0.1238 0.0000
vt 0.7576 0.1235 0.0000
vt 0.7615 0.1235 0.0000
vt 0.8594 0.1238 0.0000
vt 0.8562 0.1238 0.0000
vt 0.8157 0.0576 0.0000
vt 0.8157 0.0623 0.0000
vt 0.8455 0.0769 0.0000
vt 0.8433 0.0801 0.0000
vt 0.8550 0.1848 0.0000
vt 0.8523 0.1807 0.0000
vt 0.7744 0.0625 0.0000
vt 0.7771 0.0667 0.0000
vt 0.8464 0.0771 0.0000
vt 0.8445 0.0803 0.0000
vt 0.3352 0.7971 0.0000
vt 0.3594 0.7407 0.0000
vt 0.4177 0.7971 0.0000
vt 0.4177 0.7175 0.0000
vt 0.4761 0.7407 0.0000
vt 0.5002 0.7971 0.0000
vt 0.4761 0.8535 0.0000
vt 0.4177 0.8770 0.0000
vt 0.3594 0.8535 0.0000
# 139 texture coords

g Mesh0
usemtl Material__34
s 1
f 1/1/1 2/2/2 3/3/3 
f 1/1/1 3/3/3 4/4/4 
f 4/4/4 3/3/3 5/5/5 
f 4/4/4 5/5/5 6/6/6 
f 6/6/6 5/5/5 7/7/6 
f 6/6/6 7/7/6 8/8/7 
f 8/8/7 7/7/6 9/9/8 
f 8/8/7 9/9/8 10/10/9 
f 8/8/7 10/10/9 11/11/10 
f 11/11/10 10/10/9 12/12/11 
f 12/12/11 10/10/9 13/13/12 
f 13/13/12 10/10/9 14/14/13 
f 14/14/13 10/10/9 15/15/14 
f 15/15/14 10/10/9 9/9/8 
f 15/15/14 16/16/15 14/14/13 
f 14/14/13 16/16/15 17/17/16 
f 14/14/13 17/17/16 18/18/16 
f 18/18/16 17/17/16 19/19/17 
f 18/18/16 19/19/17 20/20/18 
f 20/20/18 19/19/17 21/21/19 
f 20/20/18 21/21/19 3/3/3 
f 3/3/3 21/21/19 5/5/5 
f 20/20/18 3/3/3 22/22/20 
f 22/22/20 3/3/3 2/2/2 
f 23/23/21 24/24/22 25/25/23 
f 25/25/23 24/24/22 26/26/24 
f 25/25/23 26/26/24 27/27/25 
f 25/25/23 27/27/25 28/28/26 
f 25/25/23 28/28/26 29/29/27 
f 25/25/23 29/29/27 30/30/28 
f 25/25/23 30/30/28 23/23/21 
f 23/23/21 30/30/28 31/31/29 
f 23/23/21 31/31/29 32/32/29 
f 32/32/29 31/31/29 33/33/30 
f 32/32/29 33/33/30 34/34/31 
f 34/34/31 33/33/30 35/35/32 
f 35/35/32 33/33/30 36/36/33 
f 35/35/32 36/36/33 37/37/34 
f 35/35/32 37/37/34 38/38/35 
f 35/35/32 38/38/35 39/39/36 
f 35/35/32 39/39/36 40/40/37 
f 35/35/32 40/40/37 34/34/31 
f 26/26/24 24/24/22 41/9/38 
f 26/26/24 41/9/38 42/41/39 
f 42/41/39 41/9/38 43/42/39 
f 42/41/39 43/42/39 39/39/36 
f 39/39/36 43/42/39 44/43/40 
f 39/39/36 44/43/40 40/40/37 
f 45/44/41 46/45/42 47/46/43 
f 45/44/41 47/46/43 48/47/44 
f 48/47/44 47/46/43 49/48/45 
f 49/48/45 47/46/43 50/49/46 
f 50/49/46 47/46/43 51/50/47 
f 50/49/46 51/50/47 52/51/48 
f 52/51/48 51/50/47 53/52/49 
f 53/52/49 51/50/47 54/53/50 
f 53/52/49 54/53/50 55/54/51 
f 53/52/49 55/54/51 56/55/52 
f 53/52/49 56/55/52 52/51/48 
f 52/51/48 56/55/52 57/56/53 
f 57/56/53 56/55/52 58/57/54 
f 57/56/53 58/57/54 59/58/55 
f 59/58/55 58/57/54 60/59/56 
f 60/59/56 58/57/54 61/60/57 
f 61/60/57 58/57/54 62/61/58 
f 62/61/58 58/57/54 63/62/59 
f 62/61/58 63/62/59 64/63/60 
f 64/63/60 63/62/59 65/64/61 
f 65/64/61 63/62/59 66/65/62 
f 66/65/62 63/62/59 67/66/63 
f 67/66/63 63/62/59 68/67/64 
f 67/66/63 68/67/64 69/68/65 
f 69/68/65 68/67/64 70/69/66 
f 70/69/66 68/67/64 71/70/67 
f 71/70/67 68/67/64 72/71/68 
f 72/71/68 68/67/64 56/55/52 
f 72/71/68 56/55/52 55/54/51 
f 56/55/52 68/67/64 73/72/69 
f 56/55/52 73/72/69 58/57/54 
f 58/57/54 73/72/69 63/62/59 
f 63/62/59 73/72/69 68/67/64 
f 46/45/42 64/73/60 65/74/61 
f 51/50/47 47/46/43 74/75/70 
f 51/50/47 74/75/70 54/53/50 
f 54/53/50 74/75/70 75/76/71 
f 54/53/50 75/76/71 76/77/72 
f 76/77/72 75/76/71 77/78/73 
f 77/78/73 75/76/71 78/79/74 
f 78/79/74 75/76/71 79/80/75 
f 79/80/75 75/76/71 74/75/70 
f 79/80/75 74/75/70 80/81/76 
f 80/81/76 74/75/70 47/46/43 
f 80/81/76 47/46/43 46/45/42 
f 80/81/76 46/45/42 65/74/61 
f 80/81/76 65/74/61 79/80/75 
f 79/80/75 65/74/61 66/82/62 
f 27/83/77 26/84/78 62/85/79 
f 62/85/79 26/84/78 61/86/80 
f 36/87/81 33/88/82 50/89/83 
f 50/89/83 33/88/82 49/90/84 
f 20/91/85 22/92/86 69/93/87 
f 69/93/87 22/92/86 67/94/88 
f 13/95/89 14/96/90 72/97/91 
f 72/97/91 14/96/90 71/98/92 
f 61/86/80 26/84/78 42/99/93 
f 61/86/80 42/99/93 60/100/94 
f 60/100/94 42/99/93 39/101/95 
f 60/100/94 39/101/95 59/102/96 
f 20/91/85 69/93/87 18/103/97 
f 18/103/97 69/93/87 70/104/98 
f 18/103/97 70/104/98 14/96/90 
f 14/96/90 70/104/98 71/98/92 
f 13/95/89 72/97/91 12/105/99 
f 12/105/99 72/97/91 55/106/100 
f 12/105/99 55/106/100 11/107/101 
f 11/107/101 55/106/100 54/108/102 
f 1/109/103 79/110/104 2/111/105 
f 2/111/105 79/110/104 66/112/105 
f 2/111/105 66/112/105 22/92/86 
f 22/92/86 66/112/105 67/94/88 
f 30/113/106 29/114/107 45/115/108 
f 45/115/108 29/114/107 46/116/109 
f 39/101/95 38/117/110 59/102/96 
f 59/102/96 38/117/110 57/118/111 
f 1/109/103 4/119/112 79/110/104 
f 79/110/104 4/119/112 78/120/113 
f 8/121/114 11/107/101 76/122/115 
f 76/122/115 11/107/101 54/108/102 
f 30/113/106 45/115/108 31/123/116 
f 31/123/116 45/115/108 48/124/117 
f 31/123/116 48/124/117 33/88/82 
f 33/88/82 48/124/117 49/90/84 
f 46/116/109 29/114/107 28/125/118 
f 46/116/109 28/125/118 64/126/118 
f 64/126/118 28/125/118 27/83/77 
f 64/126/118 27/83/77 62/85/79 
f 57/118/111 38/117/110 37/127/119 
f 57/118/111 37/127/119 52/128/120 
f 52/128/120 37/127/119 36/87/81 
f 52/128/120 36/87/81 50/89/83 
f 78/120/113 4/119/112 6/129/121 
f 78/120/113 6/129/121 77/130/122 
f 77/130/122 6/129/121 8/121/114 
f 77/130/122 8/121/114 76/122/115 
f 23/131/123 32/132/124 81/133/125 
f 81/133/125 32/132/124 34/134/126 
f 81/133/125 34/134/126 40/135/127 
f 81/133/125 40/135/127 44/136/128 
f 81/133/125 44/136/128 43/137/129 
f 81/133/125 43/137/129 41/138/130 
f 81/133/125 41/138/130 24/139/131 
f 81/133/125 24/139/131 23/131/123 
f 7/137/132 5/136/133 82/133/134 
f 82/133/134 5/136/133 21/135/135 
f 82/133/134 21/135/135 19/134/136 
f 82/133/134 19/134/136 17/132/137 
f 82/133/134 17/132/137 16/131/138 
f 82/133/134 16/131/138 15/139/139 
f 82/133/134 15/139/139 9/138/140 
f 82/133/134 9/138/140 7/137/132 
# 0 polygons - 160 triangles

